# xmcd CD database file
#
# Track frame offsets:
#	150
#	23049
#	45963
#	68892
#	98973
#
# Disc length: 1613 seconds
#
# Revision: 0
# Processed by: cddbd v1.5.2PL0 Copyright (c) Steve Scherf et al.
# Submitted via: CD2WAV32(JP) R3.22
#
DISCID=35064b05
DTITLE=DOUBLE - SPRING LOVE
DYEAR=2007
DGENRE=R&B
TTITLE0=SPRING LOVE
TTITLE1=SPRING LOVE (Lounge Mix)
TTITLE2=SPRING LOVE (TV Mix)
TTITLE3=SPRING LOVE (DAISHI DANCE P.I.A.N.O. ANTHEM)
TTITLE4=ALL I NEED (Long Edit)
EXTD=
EXTT0=
EXTT1=
EXTT2=
EXTT3=
EXTT4=
PLAYORDER=
